<?xml version="1.0" encoding="iso-8859-1"?>
<!-- Generator: Adobe Illustrator 19.1.0, SVG Export Plug-In . SVG Version: 6.00 Build 0)  -->
<svg version="1.1" id="Layer_1" xmlns="http://www.w3.org/2000/svg" xmlns:xlink="http://www.w3.org/1999/xlink" x="0px" y="0px"
	 viewBox="0 0 50 50" enable-background="new 0 0 50 50" xml:space="preserve">
<circle fill-rule="evenodd" clip-rule="evenodd" fill="#FFFFFF" cx="25" cy="25.7" r="16"/>
<path fill-rule="evenodd" clip-rule="evenodd" fill="#FF753A" d="M10,0h30c5.5,0,10,4.5,10,10v30c0,5.5-4.5,10-10,10H10
	C4.5,50,0,45.5,0,40V10C0,4.5,4.5,0,10,0L10,0z M25,9.7c-8.8,0-16,7.2-16,16c0,8.8,7.2,16,16,16c8.8,0,16-7.2,16-16
	C41,16.8,33.9,9.7,25,9.7z"/>
<path fill-rule="evenodd" clip-rule="evenodd" fill="#FF753A" d="M13.5,25.5"/>
<path fill="#FF753A" d="M24,14L14,24c-0.9,0.9-0.2,2.4,1,2.4h4.3v6.4c0,2,1.6,3.6,3.6,3.6h4.3c2,0,3.6-1.6,3.6-3.6v-6.4H35
	c1.2,0,1.9-1.6,1-2.4L26,14C25.5,13.4,24.5,13.4,24,14z"/>
</svg>
